<?xml version="1.0" encoding="UTF-8"?>
<svg id="Layer_2" data-name="Layer 2" xmlns="http://www.w3.org/2000/svg" viewBox="0 0 516.93 740.67">
  <defs>
    <style>
      .cls-1 {
        fill: none;
      }
    </style>
  </defs>
  <g id="Layer_1-2" data-name="Layer 1">
    <g>
      <path d="M197.45,706.81c-55.74-21.01-85.38-60.65-95.22-75.17,138.24.83,276.47,1.67,414.7,2.5-1.25-190.85-2.5-381.7-3.76-572.56-38-.42-76-.83-114.01-1.25-23.06,25.26-46.12,50.52-69.18,75.79-4.18,21.33-7.56,48.63-6.69,80.3.98,35.74,7.06,65.86,13.38,88.48,6.45-13.88,12.89-27.76,19.34-41.64,2.16-1.5,5.25-3.1,8.18-2.23,5.33,1.59,5.5,10.02,9.66,10.41,3.91.37,8.78-6.56,8.92-6.69.13-.05,1.78-1.05,3.78-1.92,1.57-.67,4.59-1.36,5.89-1.06,2.96.69,4.87,8.33,3.72,18.59,9.34,10.76,17.32,19.3,23.05,25.28,11.99,12.52,17.71,17.55,17.1,24.54-.61,6.88-7.04,11.92-11.9,14.87v7.44c-2.17-.74-19.26-6.25-33.46,3.71-13.45,9.44-14.48,25.88-14.87,31.98-1.09,17.25,6.64,28.42,10.41,37.92,6.42,16.14,7.51,42.74-19.33,87.73,2.48,12.4,4.96,24.79,7.43,37.18-4.74.71-11.32,2.36-17.84,6.69-5.04,3.35-6.64,6.04-10.41,6.69-3.8.67-9.53-.78-17.84-10.41-27.02-1.48-54.03-2.97-81.05-4.46-4.76,2.82-16.58,8.89-31.97,7.44-20.19-1.91-32.28-15.43-36.43-20.08-3.91-4.36-12.86-14.65-14.88-30.48-2.03-15.99,4.17-28.5,5.95-31.97,10.18-19.86,25.28-20,27.51-35.69,1.36-9.54-3.04-17.75.75-20.08,2.6-1.6,7.6.48,9.66,2.97,4.69,5.65,1.11,21.5-31.97,64.69-1.51,5.16-3.23,14.15,0,23.8,6.63,19.76,31.57,34.8,54.28,27.51,15.84-5.09,27.44-20.03,29.74-37.92-2.88-6.47-27.19-63.17-1.49-113.02,13.61-26.4,37.8-44.19,39.41-45.36,10.19-7.35,19.73-11.98,26.77-14.87-14.53-54.26-17.72-99.46-17.85-130.86-.14-35.13.19-53.02,9.67-69.15,20-34.01,55.04-33.83,67.66-71.38,6.88-20.45,1.16-34.41-.13-37.34-4.52-10.27-13.61-19.16-17.54-17.54-3.88,1.6-.56,13.19-5.01,15.04-5.06,2.09-16.29-10.03-16.29-10.03-4.08,3.09-10.38,7.16-18.79,10.03-18.36,6.25-34.88,2.72-41.35,1.25-17.35-3.93-18.84-9.9-33.83-11.28-12.76-1.17-22.78,2.13-27.56,3.76-28.03,9.56-41.61,34.42-45.1,41.35-20.05,1.25-40.09,2.5-60.14,3.76v230.52c-28.4,63.48-56.8,126.96-85.2,190.44-12.26,12.26-38.03,41.46-32.57,73.92,1.9,11.31,6.97,19.3,10.02,23.8,118.02,174.1,248.07,167.89,248.07,167.89,13.34-.64,36.02-3.09,63.9-13.78-2.93-4.18-5.85-8.36-8.77-12.53-17.32,4.06-63.46,12.48-116.52-7.52ZM269.76,26.82c1.35-2.38,7.36-3.39,10.41,0,3.45,3.85.47,10.48-2.23,11.15-3.57.89-10.14-7.71-8.18-11.15ZM245.22,145.78c17.22-21.74-6.42-63.74-.74-66.17,4.26-1.82,24.5,18.88,22.3,42.38-2.84,30.37-42,52.81-57.25,44.61-3.38-1.82-5.41-5.05-6.69-8.18,15.54.81,33.19-1.04,42.38-12.64ZM136.66,71.43c10.91.5,21.81.99,32.72,1.49-2.62,7.41-7.5,24.46-2.97,45.35,5.93,27.39,24.07,43.06,29.74,47.59-2.49,9.58-6.39,20.83-12.64,32.71-14.57,27.7-34.57,44.92-47.59,54.28.25-60.47.5-120.95.74-181.42Z"/>
      <path class="cls-1" d="M277.94,37.97c-3.57.89-10.14-7.71-8.18-11.15,1.35-2.38,7.36-3.39,10.41,0,3.45,3.85.47,10.48-2.23,11.15Z"/>
      <path class="cls-1" d="M266.78,121.99c-2.84,30.37-42,52.81-57.25,44.61-3.38-1.82-5.41-5.05-6.69-8.18,15.54.81,33.19-1.04,42.38-12.64,17.22-21.74-6.42-63.74-.74-66.17,4.26-1.82,24.5,18.88,22.3,42.38Z"/>
      <path class="cls-1" d="M196.15,165.86c-2.49,9.58-6.39,20.83-12.64,32.71-14.57,27.7-34.57,44.92-47.59,54.28.25-60.47.5-120.95.74-181.42,10.91.5,21.81.99,32.72,1.49-2.62,7.41-7.5,24.46-2.97,45.35,5.93,27.39,24.07,43.06,29.74,47.59Z"/>
    </g>
  </g>
</svg>